<svg width="40" height="32" viewBox="0 0 40 32" fill="none" xmlns="http://www.w3.org/2000/svg">
<g clip-path="url(#clip0_1337_3909)">
<path d="M32.3597 8.91938C33.802 8.91938 35.1403 9.56726 36.0369 10.6939C37.6481 12.7208 37.3103 15.6818 35.2859 17.295L22.9236 27.1406C22.0842 27.8093 21.0759 28.1632 20.0078 28.1632C18.5655 28.1632 17.2271 27.5153 16.3306 26.3886C15.5509 25.4077 15.1975 24.1796 15.3404 22.9333C15.4834 21.687 16.1019 20.5708 17.0816 19.7876L29.4439 9.94194C30.2807 9.27324 31.289 8.91938 32.3597 8.91938ZM32.3597 5.96881C30.6939 5.96881 29.0151 6.51261 27.6091 7.63144L15.2469 17.4771C11.9465 20.105 11.3981 24.916 14.0229 28.223C15.5301 30.1224 17.7573 31.1111 20.0052 31.1111C21.671 31.1111 23.3498 30.5673 24.7557 29.4485L37.118 19.6028C40.4184 16.9749 40.9667 12.164 38.342 8.85694C36.8321 6.96014 34.6076 5.96881 32.3597 5.96881Z" fill="#C00001"/>
<path d="M20 2.95057C22.5883 2.95057 24.6933 5.05812 24.6933 7.64963V23.4641C24.6933 26.0556 22.5883 28.1631 20 28.1631C17.4116 28.1631 15.3066 26.0556 15.3066 23.4641V7.64703C15.3066 5.05812 17.4142 2.95057 20 2.95057ZM20 0C15.7822 0 12.3622 3.42412 12.3622 7.64703V23.4615C12.3622 27.6844 15.7822 31.1085 20 31.1085C24.2178 31.1085 27.6377 27.6844 27.6377 23.4615V7.64703C27.6377 3.42412 24.2204 0 20 0Z" fill="#EB001B"/>
<path d="M7.64296 8.91938C8.71105 8.91938 9.71936 9.27324 10.5588 9.94194L22.921 19.7876C24.9455 21.4008 25.2833 24.3618 23.6721 26.3886C22.7755 27.5153 21.4371 28.1632 19.9948 28.1632C18.9267 28.1632 17.9184 27.8093 17.079 27.1406L4.71676 17.295C3.73703 16.5144 3.11853 15.3982 2.9756 14.1492C2.83267 12.9029 3.1861 11.6748 3.96573 10.6939C4.8623 9.56466 6.20065 8.91938 7.64296 8.91938ZM7.64296 5.96881C5.39504 5.96881 3.16791 6.95754 1.66063 8.85694C-0.964109 12.1614 -0.41837 16.9723 2.88464 19.6028L15.2469 29.4485C16.6528 30.5673 18.3316 31.1111 19.9974 31.1111C22.2454 31.1111 24.4725 30.1224 25.9798 28.223C28.6045 24.9186 28.0588 20.1076 24.7557 17.4771L12.3935 7.63144C10.9876 6.51261 9.30876 5.96881 7.64296 5.96881Z" fill="#FF2A26"/>
</g>
<defs>
<clipPath id="clip0_1337_3909">
<rect width="40" height="31.1111" fill="white"/>
</clipPath>
</defs>
</svg>
