<svg width="206" height="41" viewBox="0 0 206 41" fill="none" xmlns="http://www.w3.org/2000/svg">
<path d="M40.4481 11.1696C42.2509 11.1696 43.9238 11.9809 45.0445 13.3917C47.0585 15.93 46.6362 19.638 44.1057 21.6582L28.6533 33.9877C27.6041 34.8251 26.3438 35.2682 25.0087 35.2682C23.2059 35.2682 21.533 34.4569 20.4123 33.046C19.4378 31.8176 18.996 30.2797 19.1747 28.719C19.3533 27.1582 20.1264 25.7604 21.3511 24.7796L36.8035 12.4501C37.8494 11.6127 39.1098 11.1696 40.4481 11.1696ZM40.4481 7.47461C38.3659 7.47461 36.2675 8.1556 34.5101 9.55669L19.0577 21.8862C14.9323 25.1772 14.2469 31.2018 17.5278 35.3432C19.4118 37.7218 22.1956 38.9599 25.0055 38.9599C27.0876 38.9599 29.1861 38.2789 30.9434 36.8778L46.3958 24.5483C50.5212 21.2574 51.2066 15.2327 47.9258 11.0914C46.0385 8.71604 43.2579 7.47461 40.4481 7.47461Z" fill="white"/>
<path d="M24.9989 3.69495C28.2343 3.69495 30.8654 6.33421 30.8654 9.57951V29.3837C30.8654 32.629 28.2343 35.2682 24.9989 35.2682C21.7636 35.2682 19.1324 32.629 19.1324 29.3837V9.57625C19.1324 6.33421 21.7668 3.69495 24.9989 3.69495ZM24.9989 0C19.7269 0 15.452 4.28797 15.452 9.57625V29.3804C15.452 34.6687 19.7269 38.9567 24.9989 38.9567C30.271 38.9567 34.5458 34.6687 34.5458 29.3804V9.57625C34.5458 4.28797 30.2742 0 24.9989 0Z" fill="white"/>
<path d="M9.55297 11.1696C10.888 11.1696 12.1484 11.6127 13.1976 12.4501L28.65 24.7796C31.1805 26.7998 31.6028 30.5078 29.5888 33.046C28.4681 34.4569 26.7952 35.2682 24.9924 35.2682C23.6573 35.2682 22.3969 34.8251 21.3477 33.9877L5.89533 21.6582C4.6707 20.6807 3.8976 19.2828 3.71894 17.7188C3.54028 16.1581 3.98205 14.6201 4.95656 13.3917C6.07724 11.9776 7.75014 11.1696 9.55297 11.1696ZM9.55297 7.47461C6.74315 7.47461 3.95932 8.71278 2.07527 11.0914C-1.20556 15.2295 -0.523406 21.2541 3.60525 24.5483L19.0576 36.8778C20.815 38.2789 22.9134 38.9599 24.9956 38.9599C27.8054 38.9599 30.5893 37.7218 32.4733 35.3432C35.7542 31.2051 35.072 25.1804 30.9434 21.8862L15.491 9.55669C13.7336 8.1556 11.6352 7.47461 9.55297 7.47461Z" fill="white"/>
<path d="M78.6091 40C78.2101 40 77.8701 39.9211 77.5857 39.767C77.3047 39.6128 77.0792 39.3296 76.9127 38.9173L69.1836 17.6858C69.1177 17.5137 69.0587 17.3523 69.0102 17.1982C68.9616 17.044 68.9338 16.9329 68.9338 16.8648C68.9338 16.4883 69.0761 16.1621 69.3571 15.886C69.6381 15.6099 69.9815 15.3948 70.3804 15.2407C70.7794 15.0865 71.161 15.0076 71.5287 15.0076C71.827 15.0076 72.1011 15.0757 72.3509 15.2156C72.6006 15.3518 72.7741 15.5597 72.8747 15.8358L78.8588 33.1487L83.5941 17.5352C83.7259 17.1587 83.9271 16.8899 84.1942 16.7357C84.4614 16.5815 84.7736 16.5027 85.1413 16.5027C85.509 16.5027 85.8316 16.5779 86.1126 16.7357C86.3936 16.8899 86.5879 17.1587 86.685 17.5352L91.3232 33.3029L97.4079 15.8358C97.5744 15.2873 98.0046 15.0112 98.7053 15.0112C99.0696 15.0112 99.4547 15.0901 99.8501 15.2443C100.249 15.3984 100.589 15.6135 100.874 15.8896C101.155 16.1656 101.297 16.4919 101.297 16.8683C101.297 16.9723 101.272 17.1086 101.224 17.2806C101.175 17.4527 101.13 17.589 101.099 17.6929L93.3214 39.0786C93.1895 39.4228 92.971 39.663 92.6726 39.7992C92.3743 39.9355 92.0413 40.0072 91.6736 40.0072C91.2399 40.0072 90.8826 39.9283 90.6016 39.7741C90.3206 39.62 90.109 39.3869 89.9772 39.0786L85.1413 23.9276L80.4026 38.9245C80.2707 39.2686 80.0383 39.5339 79.7053 39.724C79.3722 39.914 79.008 40.0072 78.6091 40.0072V40Z" fill="white"/>
<path d="M109.373 8.41445C108.641 8.41445 108.027 8.16707 107.527 7.66873C107.028 7.17039 106.778 6.59676 106.778 5.94067C106.778 5.28458 107.028 4.7217 107.527 4.24128C108.027 3.76087 108.641 3.52066 109.373 3.52066C110.105 3.52066 110.67 3.76087 111.166 4.24128C111.666 4.7217 111.916 5.28816 111.916 5.94067C111.916 6.59317 111.666 7.17039 111.166 7.66873C110.667 8.16707 110.07 8.41445 109.373 8.41445ZM109.373 39.5375C108.773 39.5375 108.283 39.3762 107.902 39.0499C107.52 38.7237 107.329 38.3723 107.329 37.9923V16.6066C107.329 16.1621 107.52 15.7999 107.902 15.5239C108.283 15.2478 108.773 15.1116 109.373 15.1116C109.938 15.1116 110.427 15.2478 110.844 15.5239C111.26 15.7999 111.468 16.1585 111.468 16.6066V37.9923C111.468 38.3723 111.26 38.7237 110.844 39.0499C110.427 39.3762 109.938 39.5375 109.373 39.5375Z" fill="white"/>
<path d="M121.789 39.5375C121.223 39.5375 120.748 39.3762 120.366 39.0499C119.985 38.7237 119.794 38.3723 119.794 37.9923V16.6066C119.794 16.162 119.985 15.7999 120.366 15.5239C120.748 15.2478 121.22 15.1116 121.789 15.1116C122.357 15.1116 122.819 15.2478 123.183 15.5239C123.547 15.7999 123.731 16.1585 123.731 16.6066V19.0266C124.095 18.306 124.595 17.6284 125.226 16.9902C125.858 16.3556 126.597 15.8322 127.447 15.4199C128.293 15.0076 129.233 14.8033 130.263 14.8033H131.96C132.393 14.8033 132.765 14.9933 133.08 15.3697C133.396 15.7462 133.556 16.2122 133.556 16.7608C133.556 17.277 133.396 17.7216 133.08 18.1016C132.765 18.4817 132.39 18.6681 131.96 18.6681H130.263C129.198 18.6681 128.185 18.9764 127.221 19.5967C126.257 20.2169 125.469 21.0845 124.852 22.1995C124.238 23.3145 123.929 24.6661 123.929 26.2436V37.9923C123.929 38.3723 123.721 38.7237 123.305 39.0499C122.888 39.3762 122.382 39.5375 121.785 39.5375H121.789Z" fill="white"/>
<path d="M148.66 39.9498C146.499 39.9498 144.587 39.5303 142.925 38.6878C141.264 37.8453 139.949 36.6801 138.988 35.1851C138.024 33.6901 137.542 31.9476 137.542 29.9543V24.5442C137.542 22.7911 137.999 21.1777 138.912 19.7006C139.824 18.2235 141.031 17.0368 142.527 16.1441C144.022 15.2514 145.67 14.8033 147.463 14.8033C149.257 14.8033 150.779 15.2156 152.226 16.0401C153.673 16.8647 154.835 17.9833 155.716 19.3887C156.597 20.7977 157.038 22.429 157.038 24.2861C157.038 25.6592 156.823 26.6487 156.389 27.2475C155.955 27.8498 155.407 28.219 154.745 28.3553C154.079 28.4915 153.381 28.5632 152.649 28.5632H141.68V30.1084C141.68 32.0337 142.346 33.5538 143.675 34.6688C145.003 35.7874 146.717 36.3431 148.809 36.3431C150.037 36.3431 151.019 36.171 151.751 35.8268C152.483 35.4826 153.079 35.1492 153.544 34.823C154.009 34.4967 154.425 34.3318 154.79 34.3318C155.154 34.3318 155.463 34.4429 155.712 34.6688C155.962 34.8911 156.153 35.1564 156.285 35.4683C156.417 35.7766 156.486 36.0527 156.486 36.2929C156.486 36.7411 156.17 37.2466 155.539 37.813C154.908 38.3795 154.002 38.8778 152.823 39.308C151.643 39.7383 150.256 39.9534 148.66 39.9534V39.9498ZM141.68 25.6771H150.904C151.803 25.6771 152.393 25.566 152.674 25.3437C152.955 25.1214 153.097 24.684 153.097 24.0315C153.097 22.999 152.854 22.0489 152.375 21.1706C151.893 20.2958 151.22 19.5823 150.356 19.0302C149.492 18.4817 148.511 18.2056 147.414 18.2056C146.384 18.2056 145.437 18.4566 144.573 18.9513C143.709 19.4497 143.009 20.1273 142.478 20.9877C141.947 21.8482 141.68 22.7911 141.68 23.82V25.6736V25.6771Z" fill="white"/>
<path d="M170.9 39.9498C169.304 39.9498 167.892 39.7347 166.661 39.3045C165.429 38.8742 164.468 38.3687 163.768 37.7843C163.07 37.2 162.72 36.6156 162.72 36.0312C162.72 35.7587 162.786 35.4719 162.921 35.1815C163.053 34.8911 163.23 34.633 163.445 34.4071C163.66 34.1848 163.903 34.0737 164.167 34.0737C164.566 34.0737 164.996 34.2709 165.464 34.6652C165.929 35.0596 166.56 35.4647 167.358 35.877C168.156 36.2893 169.301 36.4973 170.799 36.4973C172.562 36.4973 173.79 36.1638 174.491 35.4934C175.188 34.823 175.538 34.0773 175.538 33.2527C175.538 32.1879 175.24 31.3704 174.64 30.804C174.04 30.2375 173.276 29.7929 172.347 29.4631C171.417 29.1369 170.435 28.8178 169.405 28.5094C168.375 28.2011 167.393 27.8139 166.463 27.3514C165.533 26.8889 164.777 26.2364 164.194 25.3939C163.612 24.5514 163.324 23.4256 163.324 22.0167C163.324 20.8837 163.587 19.7687 164.121 18.6681C164.652 17.571 165.52 16.6496 166.713 15.9111C167.91 15.1725 169.505 14.8033 171.5 14.8033C172.662 14.8033 173.786 14.9323 174.865 15.1905C175.944 15.4486 176.825 15.7928 177.509 16.2194C178.189 16.6496 178.532 17.1049 178.532 17.5854C178.532 17.7933 178.466 18.0658 178.331 18.41C178.199 18.7541 178.015 19.0625 177.783 19.3385C177.55 19.6146 177.252 19.7508 176.884 19.7508C176.617 19.7508 176.242 19.6218 175.764 19.3636C175.281 19.1055 174.699 18.8581 174.019 18.6179C173.335 18.3777 172.513 18.2558 171.552 18.2558C170.456 18.2558 169.575 18.453 168.909 18.8474C168.243 19.2417 167.761 19.7078 167.462 20.2384C167.164 20.7726 167.015 21.314 167.015 21.8625C167.015 22.7229 167.306 23.3934 167.889 23.8738C168.468 24.3542 169.235 24.7414 170.182 25.0318C171.129 25.3222 172.118 25.6162 173.148 25.9066C174.178 26.197 175.16 26.6129 176.09 27.1435C177.019 27.6777 177.786 28.4055 178.383 29.334C178.983 30.2626 179.281 31.4995 179.281 33.0447C179.281 35.1421 178.549 36.8163 177.085 38.0676C175.621 39.3224 173.561 39.9498 170.903 39.9498H170.9Z" fill="white"/>
<path d="M188.349 39.5375C187.784 39.5375 187.309 39.3762 186.927 39.0499C186.546 38.7237 186.355 38.3723 186.355 37.9923V1.86789C186.355 1.42333 186.546 1.06122 186.927 0.785161C187.309 0.509101 187.781 0.372864 188.349 0.372864C188.95 0.372864 189.453 0.509101 189.869 0.785161C190.285 1.06122 190.493 1.41974 190.493 1.86789V25.9855L201.861 15.3697C202.16 15.1295 202.462 15.0076 202.76 15.0076C203.093 15.0076 203.416 15.1044 203.731 15.2909C204.047 15.4809 204.311 15.7282 204.529 16.0366C204.744 16.3449 204.852 16.6712 204.852 17.0153C204.852 17.1874 204.817 17.3667 204.751 17.5567C204.685 17.7467 204.567 17.908 204.401 18.0443L197.47 24.3829L205.747 36.802C205.913 37.0422 205.997 37.3004 205.997 37.5764C205.997 37.9206 205.879 38.2648 205.646 38.609C205.414 38.9531 205.122 39.2292 204.775 39.4335C204.425 39.6379 204.068 39.7419 203.704 39.7419C203.239 39.7419 202.857 39.5196 202.555 39.0714L194.628 27.0646L190.49 30.8793V37.9887C190.49 38.3687 190.282 38.7201 189.865 39.0463C189.449 39.3726 188.943 39.5339 188.346 39.5339L188.349 39.5375Z" fill="white"/>
</svg>
