<?xml version="1.0" encoding="utf-8"?>
<!-- Generator: Adobe Illustrator 27.6.1, SVG Export Plug-In . SVG Version: 6.00 Build 0)  -->
<svg version="1.1" id="Layer_1" xmlns="http://www.w3.org/2000/svg" xmlns:xlink="http://www.w3.org/1999/xlink" x="0px" y="0px"
	 viewBox="0 0 169.3 169.3" style="enable-background:new 0 0 169.3 169.3;" xml:space="preserve" width="300px" height="300px">
<style type="text/css">
	.st0{fill:#ED3532;}
	.st1{fill:#FFFFFF;}
	.st2{fill:#BE2026;}
	.st3{fill:#E91D25;}
	.st4{fill:#ED3430;}
</style>
<rect y="0" width="169.3" height="169.3"/>
<g>
	<path class="st2" d="M112.2,69.9c3.2,0,6.2,1.4,8.2,4c3.6,4.5,2.8,11.1-1.7,14.7l-27.6,21.9c-1.9,1.5-4.1,2.3-6.5,2.3
		c-3.2,0-6.2-1.4-8.2-4c-1.7-2.2-2.5-4.9-2.2-7.7s1.7-5.3,3.9-7l27.6-21.9C107.6,70.7,109.8,69.9,112.2,69.9L112.2,69.9L112.2,69.9z
		 M112.2,63.3c-3.7,0-7.5,1.2-10.6,3.7L74.1,88.9c-7.4,5.9-8.6,16.6-2.7,23.9l0,0c3.4,4.2,8.3,6.4,13.3,6.4c3.7,0,7.5-1.2,10.6-3.7
		l27.6-21.9c7.4-5.9,8.6-16.6,2.7-23.9l0,0C122.2,65.5,117.2,63.3,112.2,63.3L112.2,63.3z"/>
	<path class="st3" d="M84.7,56.6c5.8,0,10.5,4.7,10.5,10.5v35.2c0,5.8-4.7,10.5-10.5,10.5c-5.8,0-10.5-4.7-10.5-10.5V67
		C74.2,61.3,78.9,56.6,84.7,56.6L84.7,56.6z M84.7,50L84.7,50c-9.4,0-17,7.6-17,17v35.2c0,9.4,7.6,17,17,17l0,0c9.4,0,17-7.6,17-17
		V67C101.7,57.6,94.1,50,84.7,50L84.7,50z"/>
	<path class="st4" d="M57.1,69.9c2.4,0,4.6,0.8,6.5,2.3l27.6,21.9c4.5,3.6,5.3,10.2,1.7,14.7c-2,2.5-5,4-8.2,4
		c-2.4,0-4.6-0.8-6.5-2.3L50.6,88.5c-2.2-1.7-3.6-4.2-3.9-7c-0.3-2.8,0.5-5.5,2.2-7.7C50.9,71.3,53.9,69.9,57.1,69.9L57.1,69.9z
		 M57.1,63.3c-5,0-10,2.2-13.3,6.4l0,0c-5.9,7.4-4.6,18.1,2.7,23.9l27.6,21.9c3.1,2.5,6.9,3.7,10.6,3.7c5,0,10-2.2,13.3-6.4l0,0
		c5.9-7.4,4.6-18.1-2.7-23.9L67.7,67C64.5,64.5,60.8,63.3,57.1,63.3L57.1,63.3z"/>
</g>
</svg>
